{"title":"ABCD 2 (2015) - 1CDRip - DVDScr x264 AC3 2CH - [ M2Tv ExcluSivE ","uid":12039145,"size":739810372,"categoryP":"video","categoryS":"hd___movies","magnet":"?xt=urn:btih:c1c11e897620b6c9e2c842cbdfb8480516a69e92&amp;dn=ABCD+2+%282015%29+-+1CDRip+-+DVDScr+x264+AC3+2CH+-+%5B+M2Tv+ExcluSivE+&amp;tr=udp%3A%2F%2Ftracker.openbittorrent.com%3A80&amp;tr=udp%3A%2F%2Fopen.demonii.com%3A1337&amp;tr=udp%3A%2F%2Ftracker.coppersurfer.tk%3A6969&amp;tr=udp%3A%2F%2Fexodus.desync.com%3A6969","seeders":1,"leechers":0,"uploader":"Urmit","files":9,"time":1434736975,"description":"[center][img]http://i.imgur.com/ZbGI2j7.png[/img]\n\n[img]http://i.imgur.com/kXgK8YB.jpg[/img]\n\n[size=6][color=blue][b]ABCD 2 (2015) - 1CDRip - DVDScr x264 AC3 2CH - [ M2Tv ExcluSivE ][/b][/color][/size]\n\n[img]http://i.imgur.com/tWjvQAx.png[/img]\n\n[code][* Year ].............: [ (2015)\n\n\n[* Source ]...........: [ -* M2Tv (Thanks) *-\n[* Ripper ]...........: [ -* -* TuHiN *- *-\n\nFormat                      : Matroska\nFormat version              : Version 4 / Version 2\nFile size                   : 706 MiB\nDuration                    : 2h 24mn\nOverall bit rate            : 683 Kbps\n\n\n\n[ * Video ]\n\nFormat                      : AVC\nFormat/Info                 : Advanced Video Codec\nFormat profile              : &lt;a class=&quot;__cf_email__&quot; href=&quot;/cdn-cgi/l/email-protection&quot; data-cfemail=&quot;97dffef0ffd7dba5b9a6&quot;&gt;[email&amp;#160;protected]&lt;/a&gt;&lt;script data-cfhash='f9e31' type=&quot;text/javascript&quot;&gt;\n/* &lt;![CDATA[ */!function(){try{var t=&quot;currentScript&quot;in document?document.currentScript:function(){for(var t=document.getElementsByTagName(&quot;script&quot;),e=t.length;e--;)if(t[e].getAttribute(&quot;data-cfhash&quot;))return t[e]}();if(t&amp;&amp;t.previousSibling){var e,r,n,i,c=t.previousSibling,a=c.getAttribute(&quot;data-cfemail&quot;);if(a){for(e=&quot;&quot;,r=parseInt(a.substr(0,2),16),n=2;a.length-n;n+=2)i=parseInt(a.substr(n,2),16)^r,e+=String.fromCharCode(i);e=document.createTextNode(e),c.parentNode.replaceChild(e,c)}t.parentNode.removeChild(t);}}catch(u){}}()/* ]]&gt; */&lt;/script&gt;\nFormat settings, CABAC      : Yes\nFormat settings, ReFrames   : 4 frames\nCodec ID                    : V_MPEG4/ISO/AVC\nDuration                    : 2h 24mn\nBit rate                    : 553 Kbps\nWidth                       : 640 pixels\nHeight                      : 272 pixels\nDisplay aspect ratio        : 2.35:1\nFrame rate mode             : Constant\nFrame rate                  : 25.000 fps\nColor space                 : YUV\nChroma subsampling          : 4:2:0\nBit depth                   : 8 bits\nScan type                   : Progressive\nBits/(Pixel*Frame)          : 0.127\nStream size                 : 559 MiB (79%)\nWriting library             : x264\n\n\n[ * Audio ]\n\nFormat                      : MPEG Audio\nFormat version              : Version 1\nFormat profile              : Layer 2\nCodec ID                    : A_MPEG/L2\nCodec ID/Hint               : MP2\nDuration                    : 2h 24mn\nBit rate mode               : Constant\nBit rate                    : 128 Kbps\nChannel(s)                  : 2 channels\nSampling rate               : 44.1 KHz\nCompression mode            : Lossy\nStream size                 : 132 MiB (19%)\nDefault                     : Yes\nForced                      : No\n\n\nNote: &quot;JPEG&quot; less quality, don't judge by this.[/code]\n\n[img]http://i.imgur.com/gIJLfgQ.jpg[/img]\n[img]http://i.imgur.com/cWBhddx.jpg[/img]\n[img]http://i.imgur.com/jAouQdn.jpg[/img]\n[img]http://i.imgur.com/RPqgcNU.jpg[/img]\n\n\n[size=5][u][i]\n[b]Note :[/b]\n[/i][/u][/size]\n\n[color=blue][size=6][i][b]Wherever you share our stuffs, Always Give Proper Credits To &quot;Team M2Tv&quot;, Enjoy.[/b][/i][/size][/color]\n[/center]","torrent":{"xt":"urn:btih:c1c11e897620b6c9e2c842cbdfb8480516a69e92","amp;dn":"ABCD+2+%282015%29+-+1CDRip+-+DVDScr+x264+AC3+2CH+-+%5B+M2Tv+ExcluSivE+","amp;tr":["udp%3A%2F%2Ftracker.openbittorrent.com%3A80","udp%3A%2F%2Fopen.demonii.com%3A1337","udp%3A%2F%2Ftracker.coppersurfer.tk%3A6969","udp%3A%2F%2Fexodus.desync.com%3A6969"],"infoHash":"c1c11e897620b6c9e2c842cbdfb8480516a69e92","infoHashBuffer":{"type":"Buffer","data":[193,193,30,137,118,32,182,201,226,200,66,203,223,184,72,5,22,166,158,146]},"announce":[],"urlList":[]}}